<svg width="94" height="93" viewBox="0 0 94 93" fill="none" xmlns="http://www.w3.org/2000/svg">
<g clip-path="url(#clip0)">
<path d="M48.8001 43.5C43.6001 43.5 39.4001 50.1 39.4001 55.3C39.4001 60.5 43.6001 64.7 48.8001 64.7C54.0001 64.7 58.2001 60.5 58.2001 55.3C58.2001 50.1 54.0001 43.5 48.8001 43.5Z" fill="#59D980"/>
<path d="M93 46.6C86.7 22.2 71.7 -5.49997 47.3 0.900028C17.1 8.90003 -6.49998 21.4 1.60002 46.6C9.40003 70.6 22.1 92.3 47.3 92.3C72.5 92.3 99.5 71.9 93 46.6ZM65.4 66.8C62.2 70.5 57.7 73.2 52.7 74.1C51.5 74.3 50.2 74.4 48.9 74.4C47.6 74.4 46.4 74.3 45.2 74.1C44.1 73.9 43.1 73.6 42 73.3C41.8 73.3 41.7 73.2 41.5 73.1C37.8 71.8 34.5 69.4 32 66.5C31.2 65.5 30.5 64.5 29.9 63.5C29.9 63.4 29.8 63.4 29.8 63.3C27.3 58.6 26.9 53.1 28.5 48L31.2 39.6C32.1 37 32.7 34.3 33.2 31.6C34.4 24.2 40.9 18.5 48.7 18.5C50.8 18.5 52.9 18.9 54.7 19.7C59.5 21.7 63 25.9 64.1 31.1C64.8 34.7 65.7 38.2 66.8 41.7L69 48C71.1 54.5 69.8 61.6 65.4 66.8Z" fill="#59D980"/>
</g>
<defs>
<clipPath id="clip0">
<rect width="94" height="92.3" fill="white"/>
</clipPath>
</defs>
</svg>
